<svg viewBox="0 0 1080 1080" fill="none" xmlns="http://www.w3.org/2000/svg">      <defs>  <filter id="filter" x="-20%" y="-20%" width="140%" height="140%" filterUnits="objectBoundingBox" primitiveUnits="userSpaceOnUse" color-interpolation-filters="linearRGB">    <feMorphology operator="dilate" radius="20 20" in="SourceAlpha" result="morphology"/>    <feFlood flood-color="#ffffff" flood-opacity="1" result="flood"/>    <feComposite in="flood" in2="morphology" operator="in" result="composite"/>    <feMerge result="merge">          <feMergeNode in="composite" result="mergeNode"/>      <feMergeNode in="SourceGraphic" result="mergeNode1"/>      </feMerge>  </filter></defs>      <g id="notion-avatar" filter="url(#filter)">        <g id="notion-avatar-face" fill="#ffffff">      <!--?xml version="1.0" encoding="UTF-8"?-->    <title>Face/ 6</title>    <g id="Face/-6" stroke="none" stroke-width="1" fill-rule="evenodd" stroke-linecap="round" stroke-linejoin="round">        <path d="M532,379 C664.54834,379 772,486.45166 772,619 C772,751.54834 764.54834,899 532,899 C402.610491,899 332.317998,816.086314 305.249034,718.717925 C264.225797,715.291578 232,680.909158 232,639 C232,599.134956 261.158843,566.080325 299.312086,560.00055 C325.599297,455.979213 419.809919,379 532,379 Z M295.858895,624.545187 L304.141105,655.454813" id="Path" stroke="#000000" stroke-width="24"/>    </g>    </g><g id="notion-avatar-nose">      <g id="Nose/ 11"><path id="Path" fill-rule="evenodd" clip-rule="evenodd" d="M648.516 601C648.516 601 664.222 603.637 672 609.977C685.06 620.622 693.906 641.256 692.774 653.58C690.065 683.076 644 684.359 644 684.359C644 684.359 700 689.489 700 653.58C700 637.222 689.433 619.065 672 608.695C663.922 603.889 648.516 601 648.516 601Z" fill="black" stroke="black" stroke-width="6" stroke-linecap="round" stroke-linejoin="round"/></g>    </g><g id="notion-avatar-mouth">      <g id="Mouth/ 17"><g id="Group"><path id="Path" fill-rule="evenodd" clip-rule="evenodd" d="M696 748.043C696 748.043 652.693 751.692 624.619 750.391C596.544 749.09 544 741 544 741C544 741 567.514 813 621.26 813C650.652 813 664.489 801.44 679.204 779.348C685.215 770.324 696 748.043 696 748.043Z" stroke="black" stroke-width="12" stroke-linecap="round" stroke-linejoin="round"/><path id="Path_2" d="M708 745.444C708 745.444 660.212 753.222 622.485 750.111C584.758 747 542 740 542 740" stroke="black" stroke-width="12" stroke-linecap="round" stroke-linejoin="round"/><path id="Path_3" d="M537 745C537 745 539.438 740.385 542.688 738.077C545.938 735.769 550 735 550 735" stroke="black" stroke-width="12" stroke-linecap="round" stroke-linejoin="round"/><path id="Path_4" d="M569 788C569 788 588.349 777 625.365 777C662.381 777 675 786.429 675 786.429" stroke="black" stroke-width="12" stroke-linecap="round" stroke-linejoin="round"/></g></g>    </g><g id="notion-avatar-eyes">      <!--?xml version="1.0" encoding="UTF-8"?-->    <title>Eyes/ 4</title>    <g id="Eyes/-4" stroke="none" stroke-width="1" fill="none" fill-rule="evenodd">        <path d="M570,516 C583.254834,516 594,526.745166 594,540 C594,553.254834 583.254834,564 570,564 C556.745166,564 546,553.254834 546,540 C546,526.745166 556.745166,516 570,516 Z M708,516 C721.254834,516 732,526.745166 732,540 C732,553.254834 721.254834,564 708,564 C694.745166,564 684,553.254834 684,540 C684,526.745166 694.745166,516 708,516 Z M562,526 C558.686292,526 556,528.686292 556,532 C556,535.313708 558.686292,538 562,538 C565.313708,538 568,535.313708 568,532 C568,528.686292 565.313708,526 562,526 Z M700,526 C696.686292,526 694,528.686292 694,532 C694,535.313708 696.686292,538 700,538 C703.313708,538 706,535.313708 706,532 C706,528.686292 703.313708,526 700,526 Z" id="Combined-Shape" fill="#000000"/>    </g>    </g><g id="notion-avatar-eyebrows">      <g id="Eyebrows/ 11"><g id="Group"><path id="Path" fill-rule="evenodd" clip-rule="evenodd" d="M682.541 491.005C682.541 491.005 728.644 489.216 741.813 495.149C754.982 501.082 753.21 511.484 753.21 511.484C753.21 511.484 746.419 503.992 737.34 499.348C728.26 494.703 682.541 491.005 682.541 491.005Z" fill="black" stroke="black" stroke-width="8" stroke-linecap="round" stroke-linejoin="round"/><path id="Path_2" fill-rule="evenodd" clip-rule="evenodd" d="M595.459 491.005C595.459 491.005 549.356 489.216 536.187 495.149C523.018 501.082 524.79 511.484 524.79 511.484C524.79 511.484 531.581 503.992 540.66 499.348C549.74 494.703 595.459 491.005 595.459 491.005Z" fill="black" stroke="black" stroke-width="8" stroke-linecap="round" stroke-linejoin="round"/></g></g>    </g><g id="notion-avatar-glasses">      <!--?xml version="1.0" encoding="UTF-8"?-->    <title>Glasses/ 2</title>    <g id="Glasses/-2" stroke="none" stroke-width="1" fill="none" fill-rule="evenodd" stroke-linecap="round" stroke-linejoin="round">        <path d="M574.189838,502.353993 C586.612079,503.247679 601.018598,506.362134 617.409394,511.697357 C622.107339,513.226543 629.521032,514.112461 639.650474,514.355109 L640.336909,514.337568 C650.115498,514.071859 657.30038,513.191789 661.891553,511.697357 C678.282349,506.362134 692.688868,503.247679 705.11111,502.353993 C722.696433,501.088862 751.030506,503.214809 790.113329,508.731836 L791.300947,508.900056 L791.300947,529.629258 C786.297933,531.828279 783.752241,534.010301 783.663873,536.175322 C781.481852,589.634841 763.639862,606 723.65829,606 C685.15235,606 666.860184,585.095985 650.56058,541.630375 C648.424017,535.932875 644.892754,533.024776 639.966791,532.906078 L639.650474,532.90229 C634.559091,532.90229 630.922389,535.811651 628.740368,541.630375 C612.440763,585.095985 594.148598,606 555.642657,606 C515.661085,606 497.819095,589.634841 495.637074,536.175322 C495.548712,534.010446 493.003357,531.828573 488.00101,529.629702 L488,530 L289,550 L293,541 L487.999,509 L488,508.900056 C527.696939,503.258104 556.426885,501.076083 574.189838,502.353993 Z M564.611618,508.971486 C532.97231,506.789465 518.789172,513.335528 512.243109,520.972603 C505.697045,528.609677 493.695928,595.161324 551.51949,598.434355 C609.343052,601.707387 614.798105,534.06473 611.525073,526.427656 C608.252042,518.790581 596.250925,511.153507 564.611618,508.971486 Z M714.580942,508.971486 C682.941634,511.153507 670.940518,518.790581 667.667486,526.427656 C664.394454,534.06473 669.849507,601.707387 727.673069,598.434355 C785.496631,595.161324 773.495514,528.609677 766.949451,520.972603 C760.403387,513.335528 746.220249,506.789465 714.580942,508.971486 Z" id="Combined-Shape" stroke="#000000" stroke-width="4" fill="#000000"/>    </g>    </g><g id="notion-avatar-hair">      <!--?xml version="1.0" encoding="UTF-8"?-->    <title>Hairstyle/ 6</title>    <g id="Hairstyle/-6" stroke="none" stroke-width="1" fill="none" fill-rule="evenodd" stroke-linecap="round" stroke-linejoin="round">        <path d="M279,719 L312,727 L361,805 C345.104968,795.793015 330.104968,783.793015 316,769 C301.895032,754.206985 289.561699,737.540318 279,719 Z M343,303 C367,222.333333 442.666667,202.333333 570,243 C761,304 782,471 782,496 C782,512.666667 778.333333,533.666667 771,559 L769.377742,556.788495 C742.968282,520.931086 720.842368,498.001587 703,488 C652.173973,459.509334 588.817434,464 549,464 C509.182566,464 428.104379,430.95793 412,428 C409.688334,427.575411 401.590927,431.429106 429,448 L430.116018,448.665115 C436.887544,452.645909 447.182205,457.757538 461,464 C447.596463,464.038164 432.312171,461.806007 415.147123,457.303529 L412.503541,456.598811 C395.711977,452.076418 384.642719,448.384272 379.295767,445.522372 L380.06813,448.7074 C388.26572,482.685415 392.364515,505.362636 392.364515,516.739062 C392.364515,528.232771 383.924355,572.72458 367.044035,650.214489 L366,655 C350.666667,619.666667 338.333333,596 329,584 C315,566 300.202254,555.429256 288,559 L287.245493,559.229979 C278.745889,561.917334 258.53666,571.367129 244,589 C238.749387,595.368958 233.08272,607.368958 227,625 L226.065502,623.594497 C212.50066,603.100798 205.145493,587.902633 204,578 C200.118123,544.441696 214.597053,517.355586 214,510 C210.524124,467.177849 188,403 244,358 L246.2348,356.214 C282.6516,327.271333 314.906667,309.533333 343,303 Z" id="Shape" stroke="#000000" stroke-width="12" fill="#000000"/>    </g>    </g><g id="notion-avatar-accessories">      <g id="Accessories/ 14"><g id="Group"><path id="Path" d="M287.695 658.293C276.76 647.358 276.76 629.63 287.695 618.695C298.63 607.76 316.358 607.76 327.293 618.695C337.267 628.669 338.143 644.297 329.921 655.264L362.083 687.426C366.925 692.268 366.925 700.119 362.083 704.962C357.24 709.804 349.389 709.804 344.547 704.962L306.04 666.456C299.371 666.111 292.792 663.389 287.695 658.293Z" fill="white" stroke="black" stroke-width="8" stroke-linecap="round" stroke-linejoin="round"/><rect id="Rectangle" width="8" height="16" rx="4" transform="matrix(-0.707107 0.707107 0.707107 0.707107 295.615 623.221)" fill="black"/></g></g>    </g><g id="notion-avatar-details">      <!--?xml version="1.0" encoding="UTF-8"?-->    <title>Details/ 0</title>    <g id="Details/-0" stroke="none" stroke-width="1" fill="none" fill-rule="evenodd"/>    </g><g id="notion-avatar-beard">      <!--?xml version="1.0" encoding="UTF-8"?-->    <title>Beard/ 0</title>    <g id="Beard/-0" stroke="none" stroke-width="1" fill="none" fill-rule="evenodd"/>    </g>      </g>      </svg>